<mxfile host="app.diagrams.net" agent="Mozilla/5.0 (Windows NT 10.0; Win64; x64) AppleWebKit/537.36 (KHTML, like Gecko) Chrome/133.0.0.0 Safari/537.36 Edg/133.0.0.0" version="26.1.0">
  <diagram name="Page-1" id="gtC0o7gPrioIXNjkpajo">
    <mxGraphModel dx="1678" dy="888" grid="1" gridSize="10" guides="1" tooltips="1" connect="1" arrows="1" fold="1" page="1" pageScale="1" pageWidth="850" pageHeight="1100" math="0" shadow="0">
      <root>
        <mxCell id="0" />
        <mxCell id="1" parent="0" />
        <mxCell id="rXxk_b_7CrcXBClD_stp-1" value="Quản trị viên" style="swimlane;startSize=20;whiteSpace=wrap;html=1;fontStyle=1" vertex="1" parent="1">
          <mxGeometry y="140" width="550" height="1450" as="geometry" />
        </mxCell>
        <mxCell id="rXxk_b_7CrcXBClD_stp-2" value="" style="ellipse;html=1;shape=startState;fillColor=#000000;strokeColor=#ff0000;fontStyle=1" vertex="1" parent="rXxk_b_7CrcXBClD_stp-1">
          <mxGeometry x="225" y="30" width="30" height="30" as="geometry" />
        </mxCell>
        <mxCell id="rXxk_b_7CrcXBClD_stp-3" value="" style="edgeStyle=orthogonalEdgeStyle;html=1;verticalAlign=bottom;endArrow=open;endSize=8;strokeColor=#ff0000;rounded=0;fontStyle=1;entryX=0.5;entryY=0;entryDx=0;entryDy=0;" edge="1" parent="rXxk_b_7CrcXBClD_stp-1" source="rXxk_b_7CrcXBClD_stp-2" target="rXxk_b_7CrcXBClD_stp-17">
          <mxGeometry relative="1" as="geometry">
            <mxPoint x="185" y="120" as="targetPoint" />
            <Array as="points" />
          </mxGeometry>
        </mxCell>
        <mxCell id="rXxk_b_7CrcXBClD_stp-63" style="edgeStyle=orthogonalEdgeStyle;rounded=0;orthogonalLoop=1;jettySize=auto;html=1;entryX=0.5;entryY=0;entryDx=0;entryDy=0;" edge="1" parent="rXxk_b_7CrcXBClD_stp-1" source="rXxk_b_7CrcXBClD_stp-17" target="rXxk_b_7CrcXBClD_stp-50">
          <mxGeometry relative="1" as="geometry" />
        </mxCell>
        <mxCell id="rXxk_b_7CrcXBClD_stp-17" value="Truy cập báo cáo doanh thu" style="rounded=1;whiteSpace=wrap;html=1;fontStyle=1" vertex="1" parent="rXxk_b_7CrcXBClD_stp-1">
          <mxGeometry x="180" y="120" width="120" height="60" as="geometry" />
        </mxCell>
        <mxCell id="rXxk_b_7CrcXBClD_stp-58" style="edgeStyle=orthogonalEdgeStyle;rounded=0;orthogonalLoop=1;jettySize=auto;html=1;" edge="1" parent="rXxk_b_7CrcXBClD_stp-1" source="rXxk_b_7CrcXBClD_stp-50" target="rXxk_b_7CrcXBClD_stp-56">
          <mxGeometry relative="1" as="geometry" />
        </mxCell>
        <mxCell id="rXxk_b_7CrcXBClD_stp-61" value="Tổng quan" style="edgeLabel;html=1;align=center;verticalAlign=middle;resizable=0;points=[];" vertex="1" connectable="0" parent="rXxk_b_7CrcXBClD_stp-58">
          <mxGeometry x="0.4632" y="1" relative="1" as="geometry">
            <mxPoint as="offset" />
          </mxGeometry>
        </mxCell>
        <mxCell id="rXxk_b_7CrcXBClD_stp-59" style="edgeStyle=orthogonalEdgeStyle;rounded=0;orthogonalLoop=1;jettySize=auto;html=1;entryX=0.5;entryY=0;entryDx=0;entryDy=0;" edge="1" parent="rXxk_b_7CrcXBClD_stp-1" target="rXxk_b_7CrcXBClD_stp-60">
          <mxGeometry relative="1" as="geometry">
            <mxPoint x="280.0014285714285" y="260.02857142857135" as="sourcePoint" />
            <mxPoint x="360.03" y="340" as="targetPoint" />
          </mxGeometry>
        </mxCell>
        <mxCell id="rXxk_b_7CrcXBClD_stp-62" value="Chi tiết" style="edgeLabel;html=1;align=center;verticalAlign=middle;resizable=0;points=[];" vertex="1" connectable="0" parent="rXxk_b_7CrcXBClD_stp-59">
          <mxGeometry x="0.3147" relative="1" as="geometry">
            <mxPoint as="offset" />
          </mxGeometry>
        </mxCell>
        <mxCell id="rXxk_b_7CrcXBClD_stp-50" value="Chọn loại báo cáo" style="rhombus;whiteSpace=wrap;html=1;" vertex="1" parent="rXxk_b_7CrcXBClD_stp-1">
          <mxGeometry x="200" y="220" width="80" height="80" as="geometry" />
        </mxCell>
        <mxCell id="rXxk_b_7CrcXBClD_stp-56" value="Chọn khoảng thời gian" style="rounded=1;whiteSpace=wrap;html=1;fontStyle=1" vertex="1" parent="rXxk_b_7CrcXBClD_stp-1">
          <mxGeometry x="30" y="340" width="120" height="60" as="geometry" />
        </mxCell>
        <mxCell id="rXxk_b_7CrcXBClD_stp-72" style="edgeStyle=orthogonalEdgeStyle;rounded=0;orthogonalLoop=1;jettySize=auto;html=1;" edge="1" parent="rXxk_b_7CrcXBClD_stp-1" source="rXxk_b_7CrcXBClD_stp-60" target="rXxk_b_7CrcXBClD_stp-69">
          <mxGeometry relative="1" as="geometry" />
        </mxCell>
        <mxCell id="rXxk_b_7CrcXBClD_stp-76" value="khóa học" style="edgeLabel;html=1;align=center;verticalAlign=middle;resizable=0;points=[];" vertex="1" connectable="0" parent="rXxk_b_7CrcXBClD_stp-72">
          <mxGeometry x="0.4644" y="-2" relative="1" as="geometry">
            <mxPoint as="offset" />
          </mxGeometry>
        </mxCell>
        <mxCell id="rXxk_b_7CrcXBClD_stp-74" style="edgeStyle=orthogonalEdgeStyle;rounded=0;orthogonalLoop=1;jettySize=auto;html=1;entryX=0.5;entryY=0;entryDx=0;entryDy=0;" edge="1" parent="rXxk_b_7CrcXBClD_stp-1" source="rXxk_b_7CrcXBClD_stp-60" target="rXxk_b_7CrcXBClD_stp-71">
          <mxGeometry relative="1" as="geometry" />
        </mxCell>
        <mxCell id="rXxk_b_7CrcXBClD_stp-78" value="thời gian" style="edgeLabel;html=1;align=center;verticalAlign=middle;resizable=0;points=[];" vertex="1" connectable="0" parent="rXxk_b_7CrcXBClD_stp-74">
          <mxGeometry x="0.4084" relative="1" as="geometry">
            <mxPoint as="offset" />
          </mxGeometry>
        </mxCell>
        <mxCell id="rXxk_b_7CrcXBClD_stp-60" value="Chọn tiêu chí" style="rhombus;whiteSpace=wrap;html=1;" vertex="1" parent="rXxk_b_7CrcXBClD_stp-1">
          <mxGeometry x="320" y="330" width="80" height="80" as="geometry" />
        </mxCell>
        <mxCell id="rXxk_b_7CrcXBClD_stp-64" value="Xem thống kê tổng quát" style="rounded=1;whiteSpace=wrap;html=1;fontStyle=1" vertex="1" parent="rXxk_b_7CrcXBClD_stp-1">
          <mxGeometry x="10" y="530" width="120" height="60" as="geometry" />
        </mxCell>
        <mxCell id="rXxk_b_7CrcXBClD_stp-65" style="edgeStyle=orthogonalEdgeStyle;rounded=0;orthogonalLoop=1;jettySize=auto;html=1;" edge="1" parent="rXxk_b_7CrcXBClD_stp-1" source="rXxk_b_7CrcXBClD_stp-56" target="rXxk_b_7CrcXBClD_stp-64">
          <mxGeometry relative="1" as="geometry">
            <Array as="points">
              <mxPoint x="90" y="470" />
              <mxPoint x="90" y="470" />
            </Array>
          </mxGeometry>
        </mxCell>
        <mxCell id="rXxk_b_7CrcXBClD_stp-69" value="Doanh thu và số học viên" style="rounded=1;whiteSpace=wrap;html=1;fontStyle=1" vertex="1" parent="rXxk_b_7CrcXBClD_stp-1">
          <mxGeometry x="160" y="530" width="120" height="60" as="geometry" />
        </mxCell>
        <mxCell id="rXxk_b_7CrcXBClD_stp-70" value="Doanh thu và khóa học" style="rounded=1;whiteSpace=wrap;html=1;fontStyle=1" vertex="1" parent="rXxk_b_7CrcXBClD_stp-1">
          <mxGeometry x="290" y="530" width="120" height="60" as="geometry" />
        </mxCell>
        <mxCell id="rXxk_b_7CrcXBClD_stp-71" value="Doanh thu theo kỳ" style="rounded=1;whiteSpace=wrap;html=1;fontStyle=1" vertex="1" parent="rXxk_b_7CrcXBClD_stp-1">
          <mxGeometry x="420" y="530" width="120" height="60" as="geometry" />
        </mxCell>
        <mxCell id="rXxk_b_7CrcXBClD_stp-75" style="edgeStyle=orthogonalEdgeStyle;rounded=0;orthogonalLoop=1;jettySize=auto;html=1;entryX=0.51;entryY=0.047;entryDx=0;entryDy=0;entryPerimeter=0;" edge="1" parent="rXxk_b_7CrcXBClD_stp-1" source="rXxk_b_7CrcXBClD_stp-60" target="rXxk_b_7CrcXBClD_stp-70">
          <mxGeometry relative="1" as="geometry" />
        </mxCell>
        <mxCell id="rXxk_b_7CrcXBClD_stp-77" value="giảng viên" style="edgeLabel;html=1;align=center;verticalAlign=middle;resizable=0;points=[];" vertex="1" connectable="0" parent="rXxk_b_7CrcXBClD_stp-75">
          <mxGeometry x="-0.14" y="-2" relative="1" as="geometry">
            <mxPoint as="offset" />
          </mxGeometry>
        </mxCell>
        <mxCell id="rXxk_b_7CrcXBClD_stp-167" style="edgeStyle=orthogonalEdgeStyle;rounded=0;orthogonalLoop=1;jettySize=auto;html=1;entryX=0.5;entryY=0;entryDx=0;entryDy=0;" edge="1" parent="rXxk_b_7CrcXBClD_stp-1" source="rXxk_b_7CrcXBClD_stp-85" target="rXxk_b_7CrcXBClD_stp-166">
          <mxGeometry relative="1" as="geometry" />
        </mxCell>
        <mxCell id="rXxk_b_7CrcXBClD_stp-85" value="Xem báo cáo doanh thu" style="rounded=1;whiteSpace=wrap;html=1;fontStyle=1" vertex="1" parent="rXxk_b_7CrcXBClD_stp-1">
          <mxGeometry x="170" y="750" width="120" height="60" as="geometry" />
        </mxCell>
        <mxCell id="rXxk_b_7CrcXBClD_stp-166" value="Xuất báo cáo" style="rhombus;whiteSpace=wrap;html=1;fontStyle=1" vertex="1" parent="rXxk_b_7CrcXBClD_stp-1">
          <mxGeometry x="190" y="870" width="80" height="80" as="geometry" />
        </mxCell>
        <mxCell id="rXxk_b_7CrcXBClD_stp-22" value="Hệ Thống" style="swimlane;startSize=20;whiteSpace=wrap;html=1;fontStyle=1" vertex="1" parent="1">
          <mxGeometry x="550" y="140" width="300" height="1450" as="geometry" />
        </mxCell>
        <mxCell id="rXxk_b_7CrcXBClD_stp-84" style="edgeStyle=orthogonalEdgeStyle;rounded=0;orthogonalLoop=1;jettySize=auto;html=1;" edge="1" parent="rXxk_b_7CrcXBClD_stp-22" source="rXxk_b_7CrcXBClD_stp-66" target="rXxk_b_7CrcXBClD_stp-83">
          <mxGeometry relative="1" as="geometry" />
        </mxCell>
        <mxCell id="rXxk_b_7CrcXBClD_stp-66" value="Tải dữ liệu doanh thu" style="rounded=1;whiteSpace=wrap;html=1;fontStyle=1" vertex="1" parent="rXxk_b_7CrcXBClD_stp-22">
          <mxGeometry x="100" y="660" width="120" height="60" as="geometry" />
        </mxCell>
        <mxCell id="rXxk_b_7CrcXBClD_stp-83" value="Tạo báo cáo" style="rounded=1;whiteSpace=wrap;html=1;fontStyle=1" vertex="1" parent="rXxk_b_7CrcXBClD_stp-22">
          <mxGeometry x="100" y="750" width="120" height="60" as="geometry" />
        </mxCell>
        <mxCell id="rXxk_b_7CrcXBClD_stp-113" style="edgeStyle=orthogonalEdgeStyle;rounded=0;orthogonalLoop=1;jettySize=auto;html=1;fontStyle=1" edge="1" parent="rXxk_b_7CrcXBClD_stp-22" target="rXxk_b_7CrcXBClD_stp-117">
          <mxGeometry relative="1" as="geometry">
            <mxPoint x="-320" y="1090" as="sourcePoint" />
          </mxGeometry>
        </mxCell>
        <mxCell id="rXxk_b_7CrcXBClD_stp-114" value="PDF" style="edgeLabel;html=1;align=center;verticalAlign=middle;resizable=0;points=[];fontStyle=1" vertex="1" connectable="0" parent="rXxk_b_7CrcXBClD_stp-113">
          <mxGeometry x="0.0439" y="-2" relative="1" as="geometry">
            <mxPoint as="offset" />
          </mxGeometry>
        </mxCell>
        <mxCell id="rXxk_b_7CrcXBClD_stp-115" style="edgeStyle=orthogonalEdgeStyle;rounded=0;orthogonalLoop=1;jettySize=auto;html=1;entryX=0;entryY=0.5;entryDx=0;entryDy=0;fontStyle=1" edge="1" parent="rXxk_b_7CrcXBClD_stp-22" target="rXxk_b_7CrcXBClD_stp-117">
          <mxGeometry relative="1" as="geometry">
            <Array as="points">
              <mxPoint x="-399" y="1050" />
              <mxPoint x="-399" y="1120" />
              <mxPoint x="-400" y="1180" />
            </Array>
            <mxPoint x="-360" y="1050" as="sourcePoint" />
          </mxGeometry>
        </mxCell>
        <mxCell id="rXxk_b_7CrcXBClD_stp-116" value="Excel" style="edgeLabel;html=1;align=center;verticalAlign=middle;resizable=0;points=[];fontStyle=1" vertex="1" connectable="0" parent="rXxk_b_7CrcXBClD_stp-115">
          <mxGeometry x="0.067" y="-1" relative="1" as="geometry">
            <mxPoint as="offset" />
          </mxGeometry>
        </mxCell>
        <mxCell id="rXxk_b_7CrcXBClD_stp-117" value="chọn xuất báo cáo" style="rounded=1;whiteSpace=wrap;html=1;fontStyle=1" vertex="1" parent="rXxk_b_7CrcXBClD_stp-22">
          <mxGeometry x="-380" y="1140" width="120" height="60" as="geometry" />
        </mxCell>
        <mxCell id="rXxk_b_7CrcXBClD_stp-118" value="" style="ellipse;html=1;shape=endState;fillColor=#000000;strokeColor=#ff0000;fontStyle=1" vertex="1" parent="rXxk_b_7CrcXBClD_stp-22">
          <mxGeometry x="-340" y="1355" width="30" height="30" as="geometry" />
        </mxCell>
        <mxCell id="rXxk_b_7CrcXBClD_stp-119" style="edgeStyle=orthogonalEdgeStyle;rounded=0;orthogonalLoop=1;jettySize=auto;html=1;fontStyle=1" edge="1" parent="rXxk_b_7CrcXBClD_stp-22" source="rXxk_b_7CrcXBClD_stp-120" target="rXxk_b_7CrcXBClD_stp-122">
          <mxGeometry relative="1" as="geometry" />
        </mxCell>
        <mxCell id="rXxk_b_7CrcXBClD_stp-120" value="Tạo file báo cáo" style="rounded=1;whiteSpace=wrap;html=1;fontStyle=1" vertex="1" parent="rXxk_b_7CrcXBClD_stp-22">
          <mxGeometry x="90" y="1140" width="120" height="60" as="geometry" />
        </mxCell>
        <mxCell id="rXxk_b_7CrcXBClD_stp-121" value="" style="edgeStyle=orthogonalEdgeStyle;rounded=0;orthogonalLoop=1;jettySize=auto;html=1;fontStyle=1" edge="1" parent="rXxk_b_7CrcXBClD_stp-22" source="rXxk_b_7CrcXBClD_stp-122" target="rXxk_b_7CrcXBClD_stp-123">
          <mxGeometry relative="1" as="geometry" />
        </mxCell>
        <mxCell id="rXxk_b_7CrcXBClD_stp-122" value="Thêm lịch sử báo cáo" style="rounded=1;whiteSpace=wrap;html=1;fontStyle=1" vertex="1" parent="rXxk_b_7CrcXBClD_stp-22">
          <mxGeometry x="90" y="1240" width="120" height="60" as="geometry" />
        </mxCell>
        <mxCell id="rXxk_b_7CrcXBClD_stp-123" value="Tải xuống báo cáo" style="rounded=1;whiteSpace=wrap;html=1;fontStyle=1" vertex="1" parent="rXxk_b_7CrcXBClD_stp-22">
          <mxGeometry x="90" y="1340" width="120" height="60" as="geometry" />
        </mxCell>
        <mxCell id="rXxk_b_7CrcXBClD_stp-124" style="edgeStyle=orthogonalEdgeStyle;rounded=0;orthogonalLoop=1;jettySize=auto;html=1;fontStyle=1" edge="1" parent="rXxk_b_7CrcXBClD_stp-22" source="rXxk_b_7CrcXBClD_stp-117" target="rXxk_b_7CrcXBClD_stp-120">
          <mxGeometry relative="1" as="geometry" />
        </mxCell>
        <mxCell id="rXxk_b_7CrcXBClD_stp-125" style="edgeStyle=orthogonalEdgeStyle;rounded=0;orthogonalLoop=1;jettySize=auto;html=1;entryX=1;entryY=0.5;entryDx=0;entryDy=0;fontStyle=1" edge="1" parent="rXxk_b_7CrcXBClD_stp-22" source="rXxk_b_7CrcXBClD_stp-123" target="rXxk_b_7CrcXBClD_stp-118">
          <mxGeometry relative="1" as="geometry" />
        </mxCell>
        <mxCell id="rXxk_b_7CrcXBClD_stp-164" value="Chọn định dạng" style="rhombus;whiteSpace=wrap;html=1;fontStyle=1" vertex="1" parent="rXxk_b_7CrcXBClD_stp-22">
          <mxGeometry x="-360" y="1010" width="80" height="80" as="geometry" />
        </mxCell>
        <mxCell id="rXxk_b_7CrcXBClD_stp-37" value="&lt;span style=&quot;font-size: 24px;&quot;&gt;Quản trị viên báo cáo doanh thu&lt;/span&gt;" style="text;html=1;align=center;verticalAlign=middle;whiteSpace=wrap;rounded=0;fontStyle=1" vertex="1" parent="1">
          <mxGeometry x="140" y="100" width="541" height="30" as="geometry" />
        </mxCell>
        <mxCell id="rXxk_b_7CrcXBClD_stp-79" style="edgeStyle=orthogonalEdgeStyle;rounded=0;orthogonalLoop=1;jettySize=auto;html=1;entryX=0;entryY=0.5;entryDx=0;entryDy=0;" edge="1" parent="1" source="rXxk_b_7CrcXBClD_stp-64" target="rXxk_b_7CrcXBClD_stp-66">
          <mxGeometry relative="1" as="geometry">
            <Array as="points">
              <mxPoint x="70" y="830" />
            </Array>
          </mxGeometry>
        </mxCell>
        <mxCell id="rXxk_b_7CrcXBClD_stp-80" style="edgeStyle=orthogonalEdgeStyle;rounded=0;orthogonalLoop=1;jettySize=auto;html=1;entryX=0.25;entryY=0;entryDx=0;entryDy=0;" edge="1" parent="1" source="rXxk_b_7CrcXBClD_stp-69" target="rXxk_b_7CrcXBClD_stp-66">
          <mxGeometry relative="1" as="geometry">
            <Array as="points">
              <mxPoint x="220" y="780" />
              <mxPoint x="680" y="780" />
            </Array>
          </mxGeometry>
        </mxCell>
        <mxCell id="rXxk_b_7CrcXBClD_stp-81" style="edgeStyle=orthogonalEdgeStyle;rounded=0;orthogonalLoop=1;jettySize=auto;html=1;" edge="1" parent="1" source="rXxk_b_7CrcXBClD_stp-70" target="rXxk_b_7CrcXBClD_stp-66">
          <mxGeometry relative="1" as="geometry">
            <Array as="points">
              <mxPoint x="350" y="760" />
              <mxPoint x="710" y="760" />
            </Array>
          </mxGeometry>
        </mxCell>
        <mxCell id="rXxk_b_7CrcXBClD_stp-82" style="edgeStyle=orthogonalEdgeStyle;rounded=0;orthogonalLoop=1;jettySize=auto;html=1;entryX=0.75;entryY=0;entryDx=0;entryDy=0;" edge="1" parent="1" source="rXxk_b_7CrcXBClD_stp-71" target="rXxk_b_7CrcXBClD_stp-66">
          <mxGeometry relative="1" as="geometry">
            <Array as="points">
              <mxPoint x="480" y="740" />
              <mxPoint x="740" y="740" />
            </Array>
          </mxGeometry>
        </mxCell>
        <mxCell id="rXxk_b_7CrcXBClD_stp-87" style="edgeStyle=orthogonalEdgeStyle;rounded=0;orthogonalLoop=1;jettySize=auto;html=1;entryX=1;entryY=0.5;entryDx=0;entryDy=0;" edge="1" parent="1" source="rXxk_b_7CrcXBClD_stp-83" target="rXxk_b_7CrcXBClD_stp-85">
          <mxGeometry relative="1" as="geometry" />
        </mxCell>
        <mxCell id="rXxk_b_7CrcXBClD_stp-168" style="edgeStyle=orthogonalEdgeStyle;rounded=0;orthogonalLoop=1;jettySize=auto;html=1;entryX=0;entryY=0.5;entryDx=0;entryDy=0;" edge="1" parent="1" source="rXxk_b_7CrcXBClD_stp-166" target="rXxk_b_7CrcXBClD_stp-118">
          <mxGeometry relative="1" as="geometry">
            <Array as="points">
              <mxPoint x="120" y="1050" />
              <mxPoint x="120" y="1510" />
            </Array>
          </mxGeometry>
        </mxCell>
        <mxCell id="rXxk_b_7CrcXBClD_stp-169" value="không" style="edgeLabel;html=1;align=center;verticalAlign=middle;resizable=0;points=[];" vertex="1" connectable="0" parent="rXxk_b_7CrcXBClD_stp-168">
          <mxGeometry x="-0.6032" y="-2" relative="1" as="geometry">
            <mxPoint as="offset" />
          </mxGeometry>
        </mxCell>
        <mxCell id="rXxk_b_7CrcXBClD_stp-170" style="edgeStyle=orthogonalEdgeStyle;rounded=0;orthogonalLoop=1;jettySize=auto;html=1;" edge="1" parent="1" source="rXxk_b_7CrcXBClD_stp-166" target="rXxk_b_7CrcXBClD_stp-164">
          <mxGeometry relative="1" as="geometry" />
        </mxCell>
        <mxCell id="rXxk_b_7CrcXBClD_stp-171" value="có" style="edgeLabel;html=1;align=center;verticalAlign=middle;resizable=0;points=[];" vertex="1" connectable="0" parent="rXxk_b_7CrcXBClD_stp-170">
          <mxGeometry x="-0.1667" y="1" relative="1" as="geometry">
            <mxPoint as="offset" />
          </mxGeometry>
        </mxCell>
      </root>
    </mxGraphModel>
  </diagram>
</mxfile>
